<svg width="390" height="844" viewBox="0 0 390 844" fill="none" xmlns="http://www.w3.org/2000/svg">
<rect width="390" height="844" fill="#121212"/>
<path d="M87.855 473.207V454.4H99.9033V457.256H91.262V462.361H99.0768V465.217H91.262V473.207H87.855ZM114.587 467.274V459.101H117.911V473.207H114.688V470.7H114.541C114.223 471.489 113.699 472.135 112.971 472.637C112.248 473.139 111.358 473.39 110.299 473.39C109.374 473.39 108.557 473.185 107.847 472.775C107.143 472.359 106.592 471.756 106.194 470.966C105.796 470.17 105.597 469.209 105.597 468.082V459.101H108.921V467.568C108.921 468.462 109.166 469.172 109.656 469.699C110.145 470.225 110.788 470.488 111.584 470.488C112.074 470.488 112.548 470.369 113.008 470.13C113.467 469.892 113.843 469.536 114.137 469.065C114.437 468.588 114.587 467.991 114.587 467.274ZM128.274 464.942V473.207H124.95V459.101H128.128V461.498H128.293C128.617 460.708 129.135 460.081 129.845 459.616C130.561 459.15 131.446 458.918 132.499 458.918C133.472 458.918 134.32 459.126 135.042 459.542C135.771 459.958 136.334 460.561 136.732 461.351C137.136 462.141 137.335 463.099 137.329 464.226V473.207H134.005V464.74C134.005 463.797 133.76 463.059 133.27 462.527C132.786 461.994 132.116 461.728 131.259 461.728C130.677 461.728 130.16 461.856 129.707 462.113C129.26 462.364 128.908 462.729 128.651 463.206C128.4 463.684 128.274 464.262 128.274 464.942ZM149.563 473.455C148.455 473.455 147.463 473.17 146.588 472.601C145.712 472.031 145.021 471.205 144.513 470.121C144.004 469.038 143.75 467.721 143.75 466.172C143.75 464.605 144.007 463.283 144.522 462.205C145.042 461.122 145.743 460.304 146.625 459.753C147.506 459.196 148.489 458.918 149.572 458.918C150.399 458.918 151.078 459.058 151.611 459.34C152.144 459.616 152.566 459.949 152.878 460.341C153.191 460.727 153.432 461.091 153.604 461.434H153.742V454.4H157.075V473.207H153.806V470.984H153.604C153.432 471.327 153.184 471.691 152.86 472.077C152.536 472.457 152.107 472.781 151.574 473.051C151.042 473.32 150.371 473.455 149.563 473.455ZM150.491 470.727C151.195 470.727 151.795 470.537 152.291 470.158C152.787 469.772 153.163 469.236 153.42 468.551C153.677 467.865 153.806 467.066 153.806 466.154C153.806 465.242 153.677 464.449 153.42 463.776C153.169 463.102 152.796 462.579 152.3 462.205C151.81 461.832 151.207 461.645 150.491 461.645C149.75 461.645 149.132 461.838 148.636 462.224C148.14 462.609 147.766 463.142 147.515 463.821C147.264 464.501 147.139 465.279 147.139 466.154C147.139 467.036 147.264 467.822 147.515 468.514C147.773 469.2 148.149 469.742 148.645 470.139C149.147 470.531 149.762 470.727 150.491 470.727ZM174.42 454.4H178.589L184.172 468.027H184.393L189.976 454.4H194.145V473.207H190.876V460.286H190.701L185.504 473.152H183.061L177.863 460.258H177.689V473.207H174.42V454.4ZM205.387 473.491C204.494 473.491 203.689 473.332 202.972 473.014C202.262 472.689 201.699 472.212 201.283 471.581C200.872 470.951 200.667 470.173 200.667 469.249C200.667 468.453 200.814 467.795 201.108 467.274C201.402 466.754 201.803 466.338 202.311 466.025C202.819 465.713 203.392 465.478 204.028 465.318C204.671 465.153 205.335 465.034 206.021 464.96C206.848 464.874 207.518 464.798 208.032 464.731C208.546 464.657 208.92 464.547 209.153 464.4C209.391 464.247 209.511 464.011 209.511 463.693V463.638C209.511 462.946 209.306 462.41 208.895 462.031C208.485 461.651 207.894 461.461 207.123 461.461C206.309 461.461 205.663 461.639 205.185 461.994C204.714 462.349 204.396 462.768 204.23 463.252L201.126 462.811C201.371 461.954 201.775 461.238 202.339 460.662C202.902 460.081 203.591 459.646 204.405 459.358C205.219 459.065 206.119 458.918 207.105 458.918C207.784 458.918 208.461 458.997 209.134 459.156C209.808 459.316 210.423 459.579 210.98 459.946C211.537 460.307 211.984 460.8 212.321 461.425C212.664 462.049 212.835 462.83 212.835 463.766V473.207H209.639V471.269H209.529C209.327 471.661 209.042 472.028 208.675 472.371C208.314 472.708 207.858 472.98 207.307 473.188C206.762 473.39 206.122 473.491 205.387 473.491ZM206.251 471.049C206.918 471.049 207.496 470.917 207.986 470.654C208.476 470.384 208.853 470.029 209.116 469.588C209.385 469.148 209.52 468.667 209.52 468.147V466.485C209.416 466.57 209.238 466.65 208.987 466.723C208.742 466.797 208.467 466.861 208.161 466.916C207.855 466.971 207.552 467.02 207.252 467.063C206.952 467.106 206.691 467.143 206.471 467.173C205.975 467.241 205.531 467.351 205.139 467.504C204.748 467.657 204.438 467.871 204.212 468.147C203.985 468.416 203.872 468.765 203.872 469.194C203.872 469.806 204.096 470.268 204.543 470.58C204.989 470.893 205.559 471.049 206.251 471.049ZM223.122 464.942V473.207H219.798V459.101H222.975V461.498H223.141C223.465 460.708 223.982 460.081 224.693 459.616C225.409 459.15 226.294 458.918 227.347 458.918C228.32 458.918 229.168 459.126 229.89 459.542C230.619 459.958 231.182 460.561 231.58 461.351C231.984 462.141 232.183 463.099 232.177 464.226V473.207H228.853V464.74C228.853 463.797 228.608 463.059 228.118 462.527C227.634 461.994 226.964 461.728 226.107 461.728C225.525 461.728 225.008 461.856 224.555 462.113C224.108 462.364 223.756 462.729 223.499 463.206C223.248 463.684 223.122 464.262 223.122 464.942ZM243.236 473.491C242.342 473.491 241.537 473.332 240.82 473.014C240.11 472.689 239.547 472.212 239.131 471.581C238.721 470.951 238.515 470.173 238.515 469.249C238.515 468.453 238.662 467.795 238.956 467.274C239.25 466.754 239.651 466.338 240.159 466.025C240.667 465.713 241.24 465.478 241.877 465.318C242.519 465.153 243.184 465.034 243.869 464.96C244.696 464.874 245.366 464.798 245.88 464.731C246.395 464.657 246.768 464.547 247.001 464.4C247.239 464.247 247.359 464.011 247.359 463.693V463.638C247.359 462.946 247.154 462.41 246.744 462.031C246.333 461.651 245.743 461.461 244.971 461.461C244.157 461.461 243.511 461.639 243.034 461.994C242.562 462.349 242.244 462.768 242.079 463.252L238.975 462.811C239.22 461.954 239.624 461.238 240.187 460.662C240.75 460.081 241.439 459.646 242.253 459.358C243.067 459.065 243.967 458.918 244.953 458.918C245.632 458.918 246.309 458.997 246.982 459.156C247.656 459.316 248.271 459.579 248.828 459.946C249.385 460.307 249.832 460.8 250.169 461.425C250.512 462.049 250.683 462.83 250.683 463.766V473.207H247.487V471.269H247.377C247.175 471.661 246.891 472.028 246.523 472.371C246.162 472.708 245.706 472.98 245.155 473.188C244.61 473.39 243.97 473.491 243.236 473.491ZM244.099 471.049C244.766 471.049 245.345 470.917 245.834 470.654C246.324 470.384 246.701 470.029 246.964 469.588C247.233 469.148 247.368 468.667 247.368 468.147V466.485C247.264 466.57 247.086 466.65 246.835 466.723C246.591 466.797 246.315 466.861 246.009 466.916C245.703 466.971 245.4 467.02 245.1 467.063C244.8 467.106 244.54 467.143 244.319 467.173C243.823 467.241 243.379 467.351 242.988 467.504C242.596 467.657 242.287 467.871 242.06 468.147C241.834 468.416 241.72 468.765 241.72 469.194C241.72 469.806 241.944 470.268 242.391 470.58C242.838 470.893 243.407 471.049 244.099 471.049ZM263.781 478.79C262.587 478.79 261.561 478.628 260.704 478.303C259.847 477.985 259.158 477.556 258.638 477.018C258.118 476.479 257.756 475.882 257.554 475.227L260.548 474.501C260.683 474.777 260.879 475.049 261.136 475.319C261.393 475.594 261.739 475.821 262.174 475.998C262.614 476.182 263.168 476.274 263.836 476.274C264.778 476.274 265.559 476.044 266.177 475.585C266.796 475.132 267.105 474.385 267.105 473.344V470.672H266.94C266.768 471.015 266.517 471.367 266.187 471.728C265.862 472.089 265.43 472.392 264.892 472.637C264.359 472.882 263.689 473.005 262.881 473.005C261.797 473.005 260.814 472.751 259.933 472.242C259.057 471.728 258.359 470.963 257.839 469.947C257.325 468.924 257.068 467.645 257.068 466.108C257.068 464.559 257.325 463.252 257.839 462.187C258.359 461.116 259.06 460.304 259.942 459.753C260.824 459.196 261.806 458.918 262.89 458.918C263.716 458.918 264.396 459.058 264.928 459.34C265.467 459.616 265.896 459.949 266.214 460.341C266.532 460.727 266.774 461.091 266.94 461.434H267.123V459.101H270.402V473.436C270.402 474.642 270.114 475.64 269.538 476.43C268.963 477.22 268.176 477.81 267.178 478.202C266.18 478.594 265.048 478.79 263.781 478.79ZM263.808 470.397C264.512 470.397 265.112 470.225 265.608 469.882C266.104 469.54 266.48 469.047 266.738 468.404C266.995 467.761 267.123 466.99 267.123 466.09C267.123 465.202 266.995 464.425 266.738 463.757C266.487 463.09 266.113 462.573 265.617 462.205C265.127 461.832 264.524 461.645 263.808 461.645C263.067 461.645 262.449 461.838 261.953 462.224C261.457 462.609 261.084 463.139 260.833 463.812C260.582 464.48 260.456 465.239 260.456 466.09C260.456 466.953 260.582 467.709 260.833 468.358C261.09 469.001 261.466 469.503 261.962 469.864C262.464 470.219 263.08 470.397 263.808 470.397ZM283.673 473.482C282.259 473.482 281.038 473.188 280.009 472.601C278.987 472.007 278.2 471.168 277.649 470.084C277.098 468.995 276.823 467.712 276.823 466.237C276.823 464.786 277.098 463.512 277.649 462.416C278.206 461.314 278.984 460.457 279.982 459.845C280.98 459.227 282.152 458.918 283.499 458.918C284.368 458.918 285.189 459.058 285.96 459.34C286.738 459.616 287.423 460.044 288.017 460.626C288.617 461.207 289.088 461.948 289.431 462.848C289.774 463.742 289.946 464.807 289.946 466.044V467.063H278.384V464.822H286.759C286.753 464.186 286.615 463.619 286.346 463.124C286.076 462.622 285.7 462.227 285.216 461.939C284.739 461.651 284.182 461.507 283.545 461.507C282.865 461.507 282.268 461.673 281.754 462.003C281.24 462.328 280.839 462.756 280.551 463.289C280.27 463.815 280.126 464.394 280.12 465.024V466.98C280.12 467.801 280.27 468.505 280.57 469.093C280.87 469.674 281.289 470.121 281.828 470.433C282.366 470.739 282.997 470.893 283.719 470.893C284.203 470.893 284.641 470.825 285.033 470.69C285.424 470.55 285.764 470.345 286.052 470.075C286.34 469.806 286.557 469.472 286.704 469.074L289.808 469.423C289.612 470.244 289.238 470.96 288.687 471.572C288.143 472.178 287.445 472.65 286.594 472.986C285.743 473.317 284.769 473.482 283.673 473.482ZM296.378 473.207V459.101H299.602V461.452H299.749C300.006 460.638 300.446 460.01 301.071 459.57C301.701 459.123 302.421 458.899 303.229 458.899C303.413 458.899 303.618 458.908 303.844 458.927C304.077 458.939 304.27 458.961 304.423 458.991V462.049C304.282 462 304.058 461.957 303.752 461.921C303.452 461.878 303.162 461.856 302.88 461.856C302.274 461.856 301.729 461.988 301.245 462.251C300.768 462.508 300.391 462.866 300.116 463.326C299.84 463.785 299.703 464.314 299.703 464.914V473.207H296.378Z" fill="white"/>
<path d="M127.535 484.111H128.403L130.842 488.017H130.914L133.353 484.111H134.221L131.252 488.776V492.34H130.504V488.776L127.535 484.111ZM139.555 492.468C139.022 492.468 138.55 492.333 138.14 492.062C137.733 491.792 137.414 491.418 137.184 490.941C136.954 490.462 136.839 489.909 136.839 489.282C136.839 488.65 136.954 488.094 137.184 487.615C137.414 487.133 137.733 486.758 138.14 486.49C138.55 486.219 139.022 486.084 139.555 486.084C140.088 486.084 140.558 486.219 140.965 486.49C141.372 486.76 141.691 487.135 141.921 487.615C142.154 488.094 142.27 488.65 142.27 489.282C142.27 489.909 142.155 490.462 141.925 490.941C141.695 491.418 141.375 491.792 140.965 492.062C140.558 492.333 140.088 492.468 139.555 492.468ZM139.555 491.813C139.983 491.813 140.346 491.698 140.643 491.468C140.941 491.237 141.166 490.931 141.318 490.548C141.474 490.165 141.551 489.743 141.551 489.282C141.551 488.821 141.474 488.398 141.318 488.013C141.166 487.627 140.941 487.317 140.643 487.084C140.346 486.851 139.983 486.735 139.555 486.735C139.129 486.735 138.766 486.851 138.466 487.084C138.168 487.317 137.942 487.627 137.787 488.013C137.634 488.398 137.558 488.821 137.558 489.282C137.558 489.743 137.634 490.165 137.787 490.548C137.942 490.931 138.168 491.237 138.466 491.468C138.763 491.698 139.126 491.813 139.555 491.813ZM150.307 489.981V486.168H151.022V492.34H150.307V491.315H150.251C150.106 491.631 149.877 491.895 149.564 492.106C149.251 492.315 148.867 492.42 148.415 492.42C148.021 492.42 147.672 492.334 147.366 492.163C147.061 491.989 146.821 491.734 146.647 491.399C146.473 491.065 146.386 490.653 146.386 490.166V486.168H147.101V490.122C147.101 490.604 147.243 490.992 147.527 491.287C147.811 491.579 148.175 491.725 148.62 491.725C148.898 491.725 149.166 491.658 149.423 491.524C149.68 491.39 149.892 491.194 150.058 490.937C150.224 490.678 150.307 490.359 150.307 489.981ZM155.461 492.34V486.168H156.156V487.117H156.208C156.332 486.806 156.546 486.555 156.851 486.365C157.159 486.172 157.507 486.076 157.896 486.076C157.955 486.076 158.02 486.077 158.093 486.08C158.165 486.083 158.225 486.085 158.274 486.088V486.815C158.241 486.81 158.185 486.802 158.105 486.791C158.024 486.78 157.937 486.775 157.844 486.775C157.522 486.775 157.236 486.843 156.984 486.98C156.735 487.114 156.538 487.3 156.393 487.538C156.249 487.777 156.176 488.049 156.176 488.354V492.34H155.461ZM170.306 486.168V486.791H167.273V486.168H170.306ZM168.221 492.34V485.264C168.221 484.932 168.297 484.652 168.45 484.425C168.605 484.197 168.808 484.024 169.057 483.906C169.306 483.789 169.57 483.73 169.848 483.73C170.036 483.73 170.191 483.746 170.314 483.778C170.44 483.807 170.539 483.837 170.611 483.866L170.403 484.493C170.349 484.477 170.283 484.458 170.206 484.437C170.128 484.415 170.03 484.405 169.912 484.405C169.602 484.405 169.362 484.492 169.193 484.666C169.024 484.84 168.94 485.089 168.94 485.413L168.936 492.34H168.221ZM174.287 492.34V486.168H175.006V492.34H174.287ZM174.653 485.108C174.505 485.108 174.379 485.058 174.275 484.959C174.17 484.857 174.118 484.735 174.118 484.594C174.118 484.452 174.17 484.331 174.275 484.232C174.379 484.13 174.505 484.079 174.653 484.079C174.8 484.079 174.926 484.13 175.03 484.232C175.135 484.331 175.187 484.452 175.187 484.594C175.187 484.735 175.135 484.857 175.03 484.959C174.926 485.058 174.8 485.108 174.653 485.108ZM180.158 488.483V492.34H179.443V486.168H180.138V487.137H180.202C180.347 486.821 180.572 486.568 180.877 486.377C181.185 486.184 181.566 486.088 182.018 486.088C182.433 486.088 182.798 486.175 183.111 486.349C183.427 486.521 183.672 486.774 183.846 487.109C184.023 487.443 184.111 487.854 184.111 488.342V492.34H183.396V488.386C183.396 487.88 183.254 487.48 182.97 487.185C182.689 486.89 182.312 486.743 181.838 486.743C181.513 486.743 181.226 486.813 180.974 486.952C180.722 487.091 180.522 487.292 180.375 487.555C180.23 487.814 180.158 488.124 180.158 488.483ZM190.264 492.48C189.892 492.48 189.551 492.408 189.243 492.263C188.935 492.116 188.69 491.904 188.508 491.628C188.326 491.35 188.235 491.012 188.235 490.616C188.235 490.311 188.293 490.053 188.408 489.845C188.523 489.636 188.686 489.464 188.898 489.33C189.109 489.196 189.36 489.091 189.649 489.013C189.938 488.935 190.257 488.875 190.605 488.832C190.951 488.789 191.243 488.752 191.481 488.72C191.722 488.687 191.906 488.637 192.032 488.567C192.158 488.497 192.22 488.385 192.22 488.229V488.085C192.22 487.664 192.095 487.334 191.843 487.092C191.594 486.849 191.235 486.727 190.766 486.727C190.321 486.727 189.959 486.825 189.677 487.02C189.399 487.216 189.203 487.446 189.091 487.711L188.412 487.466C188.551 487.129 188.744 486.859 188.99 486.659C189.237 486.455 189.513 486.309 189.818 486.221C190.123 486.13 190.433 486.084 190.746 486.084C190.982 486.084 191.227 486.115 191.481 486.176C191.738 486.238 191.977 486.345 192.196 486.498C192.416 486.648 192.594 486.858 192.731 487.129C192.867 487.396 192.936 487.737 192.936 488.149V492.34H192.22V491.363H192.176C192.091 491.545 191.963 491.722 191.795 491.894C191.626 492.065 191.414 492.206 191.16 492.315C190.905 492.425 190.607 492.48 190.264 492.48ZM190.36 491.825C190.741 491.825 191.07 491.741 191.349 491.572C191.627 491.403 191.841 491.18 191.991 490.901C192.144 490.62 192.22 490.311 192.22 489.973V489.081C192.167 489.132 192.077 489.178 191.951 489.218C191.828 489.258 191.685 489.294 191.521 489.326C191.361 489.356 191.2 489.381 191.039 489.403C190.879 489.424 190.734 489.443 190.605 489.459C190.257 489.502 189.96 489.569 189.713 489.66C189.467 489.751 189.278 489.877 189.147 490.037C189.016 490.195 188.95 490.399 188.95 490.648C188.95 491.023 189.084 491.314 189.352 491.52C189.62 491.723 189.956 491.825 190.36 491.825ZM198.099 488.483V492.34H197.384V486.168H198.079V487.137H198.143C198.288 486.821 198.512 486.568 198.818 486.377C199.126 486.184 199.506 486.088 199.959 486.088C200.374 486.088 200.738 486.175 201.052 486.349C201.368 486.521 201.613 486.774 201.787 487.109C201.964 487.443 202.052 487.854 202.052 488.342V492.34H201.337V488.386C201.337 487.88 201.195 487.48 200.911 487.185C200.63 486.89 200.252 486.743 199.778 486.743C199.454 486.743 199.166 486.813 198.914 486.952C198.662 487.091 198.463 487.292 198.316 487.555C198.171 487.814 198.099 488.124 198.099 488.483ZM208.891 492.468C208.34 492.468 207.859 492.33 207.449 492.054C207.042 491.778 206.726 491.401 206.501 490.921C206.276 490.442 206.163 489.895 206.163 489.282C206.163 488.663 206.277 488.113 206.505 487.631C206.735 487.149 207.054 486.771 207.461 486.498C207.868 486.222 208.341 486.084 208.879 486.084C209.292 486.084 209.666 486.164 210 486.325C210.335 486.483 210.611 486.707 210.828 486.996C211.048 487.283 211.186 487.617 211.242 488H210.519C210.444 487.652 210.263 487.355 209.976 487.109C209.692 486.859 209.331 486.735 208.891 486.735C208.498 486.735 208.15 486.842 207.847 487.056C207.544 487.268 207.307 487.564 207.136 487.944C206.967 488.322 206.883 488.76 206.883 489.258C206.883 489.759 206.966 490.202 207.132 490.588C207.298 490.971 207.531 491.271 207.831 491.488C208.133 491.705 208.487 491.813 208.891 491.813C209.165 491.813 209.414 491.762 209.639 491.661C209.866 491.556 210.057 491.409 210.209 491.219C210.365 491.028 210.469 490.802 210.523 490.54H211.246C211.192 490.912 211.06 491.244 210.848 491.536C210.639 491.825 210.367 492.053 210.032 492.219C209.7 492.385 209.32 492.468 208.891 492.468ZM215.332 492.34V486.168H216.051V492.34H215.332ZM215.698 485.108C215.55 485.108 215.425 485.058 215.32 484.959C215.216 484.857 215.163 484.735 215.163 484.594C215.163 484.452 215.216 484.331 215.32 484.232C215.425 484.13 215.55 484.079 215.698 484.079C215.845 484.079 215.971 484.13 216.075 484.232C216.18 484.331 216.232 484.452 216.232 484.594C216.232 484.735 216.18 484.857 216.075 484.959C215.971 485.058 215.845 485.108 215.698 485.108ZM222.212 492.48C221.839 492.48 221.499 492.408 221.191 492.263C220.883 492.116 220.638 491.904 220.456 491.628C220.274 491.35 220.183 491.012 220.183 490.616C220.183 490.311 220.24 490.053 220.356 489.845C220.471 489.636 220.634 489.464 220.846 489.33C221.057 489.196 221.308 489.091 221.597 489.013C221.886 488.935 222.205 488.875 222.553 488.832C222.899 488.789 223.191 488.752 223.429 488.72C223.67 488.687 223.854 488.637 223.979 488.567C224.105 488.497 224.168 488.385 224.168 488.229V488.085C224.168 487.664 224.042 487.334 223.791 487.092C223.542 486.849 223.183 486.727 222.714 486.727C222.269 486.727 221.906 486.825 221.625 487.02C221.347 487.216 221.151 487.446 221.039 487.711L220.36 487.466C220.499 487.129 220.692 486.859 220.938 486.659C221.185 486.455 221.46 486.309 221.766 486.221C222.071 486.13 222.38 486.084 222.694 486.084C222.93 486.084 223.175 486.115 223.429 486.176C223.686 486.238 223.925 486.345 224.144 486.498C224.364 486.648 224.542 486.858 224.679 487.129C224.815 487.396 224.883 487.737 224.883 488.149V492.34H224.168V491.363H224.124C224.038 491.545 223.911 491.722 223.742 491.894C223.574 492.065 223.362 492.206 223.108 492.315C222.853 492.425 222.555 492.48 222.212 492.48ZM222.308 491.825C222.688 491.825 223.018 491.741 223.296 491.572C223.575 491.403 223.789 491.18 223.939 490.901C224.092 490.62 224.168 490.311 224.168 489.973V489.081C224.115 489.132 224.025 489.178 223.899 489.218C223.776 489.258 223.633 489.294 223.469 489.326C223.309 489.356 223.148 489.381 222.987 489.403C222.826 489.424 222.682 489.443 222.553 489.459C222.205 489.502 221.908 489.569 221.661 489.66C221.415 489.751 221.226 489.877 221.095 490.037C220.964 490.195 220.898 490.399 220.898 490.648C220.898 491.023 221.032 491.314 221.3 491.52C221.568 491.723 221.904 491.825 222.308 491.825ZM230.046 484.111V492.34H229.331V484.111H230.046ZM240.927 488.483V492.34H240.212V484.111H240.927V487.137H240.991C241.136 486.818 241.36 486.563 241.662 486.373C241.968 486.183 242.353 486.088 242.819 486.088C243.237 486.088 243.604 486.174 243.92 486.345C244.236 486.517 244.483 486.77 244.659 487.105C244.836 487.439 244.925 487.852 244.925 488.342V492.34H244.205V488.386C244.205 487.877 244.063 487.477 243.78 487.185C243.498 486.89 243.118 486.743 242.639 486.743C242.309 486.743 242.016 486.813 241.759 486.952C241.502 487.091 241.298 487.292 241.148 487.555C241.001 487.814 240.927 488.124 240.927 488.483ZM253.275 489.981V486.168H253.99V492.34H253.275V491.315H253.218C253.074 491.631 252.845 491.895 252.531 492.106C252.218 492.315 251.835 492.42 251.382 492.42C250.989 492.42 250.639 492.334 250.334 492.163C250.028 491.989 249.789 491.734 249.615 491.399C249.44 491.065 249.353 490.653 249.353 490.166V486.168H250.069V490.122C250.069 490.604 250.211 490.992 250.494 491.287C250.778 491.579 251.143 491.725 251.587 491.725C251.866 491.725 252.134 491.658 252.391 491.524C252.648 491.39 252.859 491.194 253.026 490.937C253.192 490.678 253.275 490.359 253.275 489.981ZM258.577 492.34V484.111H259.296V487.346H259.361C259.441 487.161 259.556 486.971 259.706 486.775C259.859 486.58 260.058 486.416 260.305 486.285C260.554 486.151 260.867 486.084 261.245 486.084C261.751 486.084 262.196 486.218 262.579 486.486C262.962 486.751 263.261 487.123 263.475 487.603C263.689 488.079 263.796 488.635 263.796 489.27C263.796 489.908 263.689 490.466 263.475 490.945C263.263 491.425 262.966 491.798 262.583 492.066C262.203 492.334 261.761 492.468 261.257 492.468C260.882 492.468 260.569 492.401 260.317 492.267C260.068 492.133 259.867 491.969 259.714 491.773C259.562 491.575 259.444 491.382 259.361 491.194H259.272V492.34H258.577ZM259.284 489.258C259.284 489.756 259.358 490.198 259.505 490.584C259.655 490.967 259.87 491.268 260.148 491.488C260.429 491.705 260.77 491.813 261.169 491.813C261.578 491.813 261.925 491.701 262.209 491.476C262.493 491.248 262.709 490.941 262.856 490.556C263.003 490.17 263.077 489.737 263.077 489.258C263.077 488.784 263.003 488.357 262.856 487.976C262.711 487.596 262.497 487.295 262.213 487.072C261.929 486.847 261.581 486.735 261.169 486.735C260.767 486.735 260.425 486.843 260.144 487.06C259.866 487.275 259.653 487.572 259.505 487.952C259.358 488.33 259.284 488.765 259.284 489.258Z" fill="white"/>
<path d="M236.983 397.295V417.835C236.983 430.159 228.768 438.375 216.444 438.375H175.364C163.041 438.375 154.825 430.159 154.825 417.835V397.295C154.825 386.122 161.562 378.317 172.037 377.002C173.105 376.838 174.214 376.756 175.364 376.756H216.444C217.512 376.756 218.539 376.797 219.525 376.961C230.123 378.193 236.983 386.039 236.983 397.295Z" fill="#4F7DFF"/>
<path d="M219.525 376.961C218.539 376.797 217.512 376.756 216.444 376.756H175.364C174.214 376.756 173.105 376.838 172.037 377.002C172.612 375.852 173.434 374.784 174.42 373.798L187.77 360.406C193.398 354.819 202.518 354.819 208.146 360.406L215.335 367.677C217.964 370.265 219.36 373.551 219.525 376.961Z" fill="#F5F7FA"/>
<path d="M236.983 399.349H224.66C220.141 399.349 216.444 403.046 216.444 407.565C216.444 412.084 220.141 415.781 224.66 415.781H236.983" fill="#F5F7FA"/>
<path d="M196.658 413.106H197.534C198.41 413.106 199.138 412.324 199.138 411.38C199.138 410.208 198.721 409.978 198.033 409.736L196.672 409.264V413.106H196.658Z" fill="white"/>
<path d="M195.607 394.208C188.167 394.235 182.141 400.287 182.168 407.728C182.195 415.168 188.247 421.193 195.688 421.166C203.128 421.139 209.154 415.087 209.127 407.647C209.1 400.206 203.048 394.194 195.607 394.208ZM198.694 407.822C199.745 408.186 201.16 408.968 201.16 411.38C201.16 413.456 199.529 415.128 197.535 415.128H196.658V415.909C196.658 416.462 196.2 416.92 195.647 416.92C195.095 416.92 194.637 416.462 194.637 415.909V415.128H194.151C191.941 415.128 190.148 413.267 190.148 410.976C190.148 410.423 190.606 409.965 191.159 409.965C191.712 409.965 192.17 410.423 192.17 410.976C192.17 412.149 193.059 413.106 194.151 413.106H194.637V408.55L192.601 407.822C191.55 407.458 190.134 406.676 190.134 404.263C190.134 402.188 191.765 400.516 193.76 400.516H194.637V399.734C194.637 399.182 195.095 398.723 195.647 398.723C196.2 398.723 196.658 399.182 196.658 399.734V400.516H197.144C199.354 400.516 201.147 402.376 201.147 404.668C201.147 405.22 200.689 405.679 200.136 405.679C199.583 405.679 199.125 405.22 199.125 404.668C199.125 403.495 198.235 402.538 197.144 402.538H196.658V407.094L198.694 407.822Z" fill="white"/>
<path d="M192.17 404.277C192.17 405.449 192.587 405.679 193.275 405.921L194.636 406.393V402.538H193.76C192.884 402.538 192.17 403.32 192.17 404.277Z" fill="white"/>
</svg>
