<svg width="252" height="175" viewBox="0 0 252 175" fill="none" xmlns="http://www.w3.org/2000/svg">
<path d="M2.12789 151V129.426H15.9486V132.702H6.03603V138.559H15.0005V141.835H6.03603V151H2.12789ZM32.7925 144.195V134.82H36.6059V151H32.9084V148.124H32.7398C32.3747 149.03 31.7742 149.771 30.9385 150.347C30.1098 150.923 29.088 151.211 27.8731 151.211C26.8127 151.211 25.8751 150.975 25.0605 150.505C24.2529 150.027 23.6208 149.336 23.1644 148.43C22.7079 147.517 22.4796 146.414 22.4796 145.122V134.82H26.293V144.532C26.293 145.557 26.5739 146.372 27.1357 146.976C27.6975 147.58 28.4349 147.882 29.3479 147.882C29.9097 147.882 30.454 147.745 30.9807 147.471C31.5074 147.197 31.9393 146.79 32.2763 146.249C32.6205 145.701 32.7925 145.017 32.7925 144.195ZM48.4935 141.519V151H44.6801V134.82H48.3249V137.569H48.5145C48.8867 136.663 49.4802 135.943 50.2948 135.41C51.1165 134.876 52.1312 134.609 53.3392 134.609C54.4558 134.609 55.4284 134.848 56.2571 135.325C57.0928 135.803 57.7389 136.495 58.1954 137.4C58.6589 138.306 58.8871 139.405 58.8801 140.698V151H55.0667V141.288C55.0667 140.206 54.7858 139.36 54.224 138.749C53.6692 138.138 52.9002 137.832 51.9171 137.832C51.2499 137.832 50.6565 137.98 50.1368 138.275C49.6241 138.563 49.2203 138.981 48.9254 139.528C48.6374 140.076 48.4935 140.74 48.4935 141.519ZM72.914 151.284C71.6429 151.284 70.5052 150.958 69.501 150.305C68.4967 149.652 67.7032 148.704 67.1203 147.461C66.5374 146.218 66.2459 144.708 66.2459 142.931C66.2459 141.133 66.5409 139.616 67.1308 138.38C67.7277 137.137 68.5318 136.2 69.5431 135.568C70.5544 134.928 71.6815 134.609 72.9246 134.609C73.8726 134.609 74.6522 134.77 75.2631 135.094C75.8741 135.41 76.3587 135.792 76.7168 136.242C77.075 136.684 77.3524 137.102 77.549 137.495H77.707V129.426H81.5309V151H77.7808V148.451H77.549C77.3524 148.844 77.068 149.262 76.6958 149.704C76.3236 150.14 75.832 150.512 75.221 150.821C74.61 151.13 73.841 151.284 72.914 151.284ZM73.978 148.156C74.7856 148.156 75.4738 147.938 76.0427 147.503C76.6115 147.06 77.0434 146.446 77.3383 145.659C77.6333 144.873 77.7808 143.956 77.7808 142.91C77.7808 141.863 77.6333 140.954 77.3383 140.181C77.0504 139.409 76.622 138.809 76.0532 138.38C75.4914 137.952 74.7996 137.738 73.978 137.738C73.1282 137.738 72.4189 137.959 71.8501 138.401C71.2812 138.844 70.8529 139.455 70.5649 140.234C70.277 141.014 70.133 141.906 70.133 142.91C70.133 143.921 70.277 144.824 70.5649 145.617C70.8599 146.404 71.2918 147.025 71.8606 147.482C72.4365 147.931 73.1423 148.156 73.978 148.156ZM101.427 129.426H106.209L112.614 145.059H112.867L119.272 129.426H124.054V151H120.304V136.179H120.104L114.142 150.937H111.34L105.377 136.147H105.177V151H101.427V129.426ZM136.95 151.327C135.925 151.327 135.002 151.144 134.18 150.779C133.365 150.407 132.719 149.859 132.242 149.135C131.771 148.412 131.536 147.52 131.536 146.46C131.536 145.547 131.704 144.792 132.042 144.195C132.379 143.598 132.839 143.121 133.422 142.762C134.004 142.404 134.661 142.134 135.391 141.951C136.129 141.762 136.891 141.625 137.677 141.54C138.625 141.442 139.394 141.354 139.984 141.277C140.574 141.193 141.003 141.066 141.269 140.898C141.543 140.722 141.68 140.452 141.68 140.087V140.023C141.68 139.23 141.445 138.615 140.974 138.18C140.504 137.745 139.826 137.527 138.941 137.527C138.007 137.527 137.266 137.731 136.719 138.138C136.178 138.545 135.813 139.026 135.623 139.581L132.063 139.075C132.344 138.092 132.807 137.271 133.453 136.61C134.099 135.943 134.889 135.445 135.823 135.115C136.757 134.778 137.79 134.609 138.92 134.609C139.7 134.609 140.476 134.7 141.248 134.883C142.021 135.065 142.727 135.367 143.366 135.789C144.005 136.203 144.517 136.768 144.904 137.485C145.297 138.201 145.494 139.096 145.494 140.171V151H141.828V148.777H141.701C141.47 149.227 141.143 149.648 140.722 150.041C140.307 150.428 139.784 150.74 139.152 150.979C138.527 151.211 137.793 151.327 136.95 151.327ZM137.941 148.524C138.706 148.524 139.37 148.373 139.932 148.072C140.493 147.763 140.925 147.355 141.227 146.85C141.536 146.344 141.691 145.793 141.691 145.196V143.289C141.571 143.387 141.368 143.479 141.08 143.563C140.799 143.647 140.483 143.721 140.132 143.784C139.781 143.847 139.433 143.904 139.089 143.953C138.745 144.002 138.446 144.044 138.193 144.079C137.625 144.156 137.115 144.283 136.666 144.458C136.217 144.634 135.862 144.88 135.602 145.196C135.342 145.505 135.212 145.905 135.212 146.397C135.212 147.099 135.469 147.629 135.981 147.987C136.494 148.345 137.147 148.524 137.941 148.524ZM157.294 141.519V151H153.481V134.82H157.126V137.569H157.315C157.688 136.663 158.281 135.943 159.096 135.41C159.917 134.876 160.932 134.609 162.14 134.609C163.257 134.609 164.229 134.848 165.058 135.325C165.894 135.803 166.54 136.495 166.996 137.4C167.46 138.306 167.688 139.405 167.681 140.698V151H163.868V141.288C163.868 140.206 163.587 139.36 163.025 138.749C162.47 138.138 161.701 137.832 160.718 137.832C160.051 137.832 159.457 137.98 158.938 138.275C158.425 138.563 158.021 138.981 157.726 139.528C157.438 140.076 157.294 140.74 157.294 141.519ZM180.366 151.327C179.341 151.327 178.418 151.144 177.596 150.779C176.781 150.407 176.135 149.859 175.658 149.135C175.187 148.412 174.952 147.52 174.952 146.46C174.952 145.547 175.121 144.792 175.458 144.195C175.795 143.598 176.255 143.121 176.838 142.762C177.42 142.404 178.077 142.134 178.807 141.951C179.545 141.762 180.307 141.625 181.093 141.54C182.041 141.442 182.81 141.354 183.4 141.277C183.99 141.193 184.419 141.066 184.685 140.898C184.959 140.722 185.096 140.452 185.096 140.087V140.023C185.096 139.23 184.861 138.615 184.391 138.18C183.92 137.745 183.242 137.527 182.357 137.527C181.423 137.527 180.683 137.731 180.135 138.138C179.594 138.545 179.229 139.026 179.039 139.581L175.479 139.075C175.76 138.092 176.223 137.271 176.869 136.61C177.515 135.943 178.305 135.445 179.239 135.115C180.173 134.778 181.206 134.609 182.336 134.609C183.116 134.609 183.892 134.7 184.664 134.883C185.437 135.065 186.143 135.367 186.782 135.789C187.421 136.203 187.933 136.768 188.32 137.485C188.713 138.201 188.91 139.096 188.91 140.171V151H185.244V148.777H185.117C184.886 149.227 184.559 149.648 184.138 150.041C183.723 150.428 183.2 150.74 182.568 150.979C181.943 151.211 181.209 151.327 180.366 151.327ZM181.357 148.524C182.122 148.524 182.786 148.373 183.348 148.072C183.909 147.763 184.341 147.355 184.643 146.85C184.952 146.344 185.107 145.793 185.107 145.196V143.289C184.987 143.387 184.784 143.479 184.496 143.563C184.215 143.647 183.899 143.721 183.548 143.784C183.197 143.847 182.849 143.904 182.505 143.953C182.161 144.002 181.862 144.044 181.61 144.079C181.041 144.156 180.532 144.283 180.082 144.458C179.633 144.634 179.278 144.88 179.018 145.196C178.758 145.505 178.628 145.905 178.628 146.397C178.628 147.099 178.885 147.629 179.397 147.987C179.91 148.345 180.563 148.524 181.357 148.524ZM203.934 157.405C202.564 157.405 201.388 157.219 200.405 156.846C199.422 156.481 198.632 155.99 198.035 155.372C197.438 154.754 197.023 154.069 196.792 153.317L200.226 152.485C200.38 152.801 200.605 153.114 200.9 153.423C201.195 153.739 201.592 153.999 202.09 154.202C202.596 154.413 203.232 154.518 203.997 154.518C205.078 154.518 205.974 154.255 206.683 153.728C207.392 153.209 207.747 152.352 207.747 151.158V148.093H207.558C207.361 148.486 207.073 148.89 206.694 149.304C206.322 149.718 205.826 150.066 205.208 150.347C204.597 150.628 203.828 150.768 202.901 150.768C201.658 150.768 200.531 150.477 199.52 149.894C198.516 149.304 197.715 148.426 197.118 147.26C196.528 146.088 196.233 144.62 196.233 142.857C196.233 141.08 196.528 139.581 197.118 138.359C197.715 137.13 198.519 136.2 199.531 135.568C200.542 134.928 201.669 134.609 202.912 134.609C203.86 134.609 204.64 134.77 205.251 135.094C205.869 135.41 206.36 135.792 206.725 136.242C207.09 136.684 207.368 137.102 207.558 137.495H207.768V134.82H211.529V151.263C211.529 152.647 211.199 153.792 210.539 154.697C209.879 155.603 208.976 156.281 207.831 156.731C206.687 157.18 205.387 157.405 203.934 157.405ZM203.965 147.777C204.773 147.777 205.461 147.58 206.03 147.187C206.599 146.793 207.031 146.228 207.326 145.491C207.621 144.753 207.768 143.868 207.768 142.836C207.768 141.818 207.621 140.926 207.326 140.16C207.038 139.395 206.609 138.802 206.041 138.38C205.479 137.952 204.787 137.738 203.965 137.738C203.116 137.738 202.406 137.959 201.837 138.401C201.269 138.844 200.84 139.451 200.552 140.224C200.264 140.989 200.12 141.86 200.12 142.836C200.12 143.826 200.264 144.694 200.552 145.438C200.847 146.175 201.279 146.751 201.848 147.166C202.424 147.573 203.13 147.777 203.965 147.777ZM226.753 151.316C225.131 151.316 223.73 150.979 222.55 150.305C221.377 149.624 220.475 148.661 219.843 147.418C219.211 146.168 218.895 144.697 218.895 143.005C218.895 141.34 219.211 139.88 219.843 138.622C220.482 137.358 221.374 136.375 222.518 135.673C223.663 134.964 225.008 134.609 226.553 134.609C227.55 134.609 228.491 134.77 229.376 135.094C230.268 135.41 231.055 135.901 231.736 136.568C232.424 137.235 232.965 138.085 233.358 139.118C233.751 140.143 233.948 141.365 233.948 142.783V143.953H220.686V141.382H230.293C230.286 140.652 230.128 140.002 229.819 139.434C229.51 138.858 229.078 138.405 228.523 138.075C227.975 137.745 227.336 137.58 226.606 137.58C225.826 137.58 225.141 137.769 224.552 138.148C223.962 138.521 223.502 139.012 223.172 139.623C222.849 140.227 222.683 140.891 222.676 141.614V143.858C222.676 144.799 222.849 145.607 223.193 146.281C223.537 146.948 224.018 147.461 224.636 147.819C225.254 148.17 225.977 148.345 226.806 148.345C227.361 148.345 227.863 148.268 228.312 148.114C228.762 147.952 229.151 147.717 229.481 147.408C229.812 147.099 230.061 146.716 230.229 146.26L233.79 146.66C233.565 147.601 233.137 148.423 232.505 149.125C231.88 149.82 231.079 150.361 230.103 150.747C229.127 151.126 228.01 151.316 226.753 151.316ZM241.327 151V134.82H245.024V137.516H245.193C245.488 136.582 245.994 135.863 246.71 135.357C247.433 134.844 248.258 134.588 249.185 134.588C249.396 134.588 249.631 134.598 249.891 134.619C250.158 134.634 250.379 134.658 250.555 134.693V138.201C250.393 138.145 250.137 138.096 249.786 138.054C249.442 138.004 249.108 137.98 248.785 137.98C248.09 137.98 247.465 138.131 246.91 138.433C246.362 138.728 245.93 139.139 245.614 139.665C245.298 140.192 245.14 140.799 245.14 141.488V151H241.327Z" fill="white"/>
<path d="M52.3489 162.544H53.2908L55.9378 166.783H56.0163L58.6634 162.544H59.6053L56.3826 167.607V171.475H55.5715V167.607L52.3489 162.544ZM65.3948 171.615C64.8162 171.615 64.3046 171.468 63.8597 171.175C63.4178 170.881 63.0719 170.475 62.8219 169.958C62.5718 169.437 62.4468 168.837 62.4468 168.157C62.4468 167.471 62.5718 166.867 62.8219 166.347C63.0719 165.824 63.4178 165.417 63.8597 165.126C64.3046 164.832 64.8162 164.686 65.3948 164.686C65.9733 164.686 66.4835 164.832 66.9254 165.126C67.3673 165.42 67.7133 165.827 67.9633 166.347C68.2162 166.867 68.3427 167.471 68.3427 168.157C68.3427 168.837 68.2177 169.437 67.9677 169.958C67.7176 170.475 67.3702 170.881 66.9254 171.175C66.4835 171.468 65.9733 171.615 65.3948 171.615ZM65.3948 170.904C65.8599 170.904 66.2538 170.779 66.5766 170.529C66.8993 170.279 67.1435 169.946 67.3092 169.53C67.4778 169.115 67.5621 168.657 67.5621 168.157C67.5621 167.657 67.4778 167.197 67.3092 166.779C67.1435 166.36 66.8993 166.024 66.5766 165.771C66.2538 165.518 65.8599 165.392 65.3948 165.392C64.9325 165.392 64.5386 165.518 64.213 165.771C63.8903 166.024 63.6446 166.36 63.476 166.779C63.3103 167.197 63.2274 167.657 63.2274 168.157C63.2274 168.657 63.3103 169.115 63.476 169.53C63.6446 169.946 63.8903 170.279 64.213 170.529C64.5357 170.779 64.9296 170.904 65.3948 170.904ZM77.0659 168.916V164.777H77.8421V171.475H77.0659V170.363H77.0049C76.8479 170.706 76.5993 170.993 76.2591 171.222C75.919 171.449 75.5033 171.563 75.0119 171.563C74.5846 171.563 74.2052 171.47 73.8738 171.284C73.5423 171.095 73.2821 170.818 73.0932 170.455C72.9042 170.092 72.8097 169.645 72.8097 169.116V164.777H73.586V169.068C73.586 169.592 73.74 170.013 74.0482 170.333C74.3564 170.65 74.7517 170.808 75.2343 170.808C75.5367 170.808 75.8274 170.736 76.1065 170.59C76.3856 170.445 76.6153 170.233 76.7955 169.953C76.9758 169.671 77.0659 169.326 77.0659 168.916ZM82.6602 171.475V164.777H83.4146V165.806H83.4713C83.6051 165.469 83.8376 165.197 84.1691 164.991C84.5034 164.782 84.8813 164.677 85.3029 164.677C85.3668 164.677 85.4381 164.678 85.5166 164.681C85.5951 164.684 85.6605 164.687 85.7128 164.69V165.479C85.6779 165.473 85.6169 165.465 85.5296 165.453C85.4424 165.441 85.3479 165.436 85.2462 165.436C84.8973 165.436 84.5862 165.51 84.313 165.658C84.0426 165.803 83.8289 166.005 83.6719 166.264C83.5149 166.523 83.4364 166.818 83.4364 167.149V171.475H82.6602ZM98.7733 164.777V165.453H95.4809V164.777H98.7733ZM96.51 171.475V163.796C96.51 163.435 96.5929 163.132 96.7586 162.885C96.9272 162.637 97.1467 162.45 97.4171 162.322C97.6875 162.194 97.9738 162.13 98.2762 162.13C98.4797 162.13 98.6483 162.148 98.782 162.182C98.9187 162.214 99.0262 162.246 99.1047 162.278L98.878 162.959C98.8198 162.941 98.7486 162.921 98.6643 162.898C98.58 162.874 98.4739 162.863 98.3459 162.863C98.0087 162.863 97.7485 162.957 97.5653 163.146C97.3822 163.335 97.2906 163.606 97.2906 163.957L97.2863 171.475H96.51ZM103.094 171.475V164.777H103.875V171.475H103.094ZM103.491 163.626C103.331 163.626 103.195 163.572 103.081 163.465C102.968 163.354 102.911 163.222 102.911 163.068C102.911 162.914 102.968 162.783 103.081 162.675C103.195 162.565 103.331 162.51 103.491 162.51C103.651 162.51 103.788 162.565 103.901 162.675C104.014 162.783 104.071 162.914 104.071 163.068C104.071 163.222 104.014 163.354 103.901 163.465C103.788 163.572 103.651 163.626 103.491 163.626ZM109.467 167.289V171.475H108.691V164.777H109.445V165.828H109.515C109.672 165.485 109.916 165.21 110.248 165.004C110.582 164.795 110.995 164.69 111.486 164.69C111.937 164.69 112.332 164.784 112.672 164.973C113.015 165.159 113.281 165.434 113.47 165.798C113.662 166.161 113.758 166.607 113.758 167.136V171.475H112.982V167.184C112.982 166.635 112.828 166.2 112.52 165.88C112.214 165.561 111.804 165.401 111.29 165.401C110.938 165.401 110.625 165.476 110.352 165.628C110.079 165.779 109.862 165.997 109.702 166.282C109.545 166.564 109.467 166.899 109.467 167.289ZM120.436 171.628C120.032 171.628 119.663 171.55 119.328 171.393C118.994 171.233 118.728 171.003 118.53 170.704C118.333 170.401 118.234 170.035 118.234 169.605C118.234 169.273 118.296 168.994 118.421 168.767C118.546 168.541 118.724 168.354 118.953 168.209C119.183 168.064 119.455 167.949 119.769 167.865C120.083 167.78 120.429 167.715 120.807 167.668C121.182 167.622 121.499 167.581 121.757 167.546C122.019 167.511 122.218 167.456 122.355 167.381C122.491 167.305 122.56 167.183 122.56 167.014V166.857C122.56 166.401 122.423 166.042 122.15 165.78C121.879 165.516 121.49 165.383 120.981 165.383C120.499 165.383 120.105 165.489 119.799 165.702C119.497 165.914 119.285 166.164 119.163 166.452L118.426 166.186C118.577 165.819 118.786 165.527 119.054 165.309C119.321 165.088 119.621 164.93 119.952 164.834C120.283 164.735 120.619 164.686 120.959 164.686C121.215 164.686 121.481 164.719 121.757 164.786C122.036 164.853 122.295 164.969 122.534 165.135C122.772 165.298 122.965 165.526 123.114 165.819C123.262 166.11 123.336 166.479 123.336 166.927V171.475H122.56V170.416H122.512C122.419 170.613 122.281 170.805 122.097 170.991C121.914 171.177 121.685 171.33 121.408 171.449C121.132 171.568 120.808 171.628 120.436 171.628ZM120.541 170.917C120.953 170.917 121.311 170.826 121.613 170.642C121.916 170.459 122.148 170.217 122.311 169.914C122.477 169.609 122.56 169.273 122.56 168.907V167.939C122.502 167.994 122.404 168.043 122.268 168.087C122.134 168.131 121.978 168.17 121.801 168.205C121.627 168.237 121.452 168.264 121.278 168.288C121.103 168.311 120.946 168.331 120.807 168.349C120.429 168.395 120.106 168.468 119.839 168.567C119.571 168.666 119.366 168.802 119.224 168.977C119.081 169.148 119.01 169.369 119.01 169.639C119.01 170.047 119.155 170.362 119.446 170.586C119.737 170.807 120.102 170.917 120.541 170.917ZM128.94 167.289V171.475H128.164V164.777H128.918V165.828H128.988C129.145 165.485 129.389 165.21 129.721 165.004C130.055 164.795 130.468 164.69 130.959 164.69C131.41 164.69 131.805 164.784 132.145 164.973C132.488 165.159 132.754 165.434 132.943 165.798C133.135 166.161 133.231 166.607 133.231 167.136V171.475H132.455V167.184C132.455 166.635 132.301 166.2 131.993 165.88C131.687 165.561 131.277 165.401 130.763 165.401C130.411 165.401 130.099 165.476 129.825 165.628C129.552 165.779 129.335 165.997 129.176 166.282C129.019 166.564 128.94 166.899 128.94 167.289ZM140.655 171.615C140.056 171.615 139.534 171.465 139.089 171.166C138.647 170.866 138.304 170.456 138.06 169.936C137.816 169.416 137.694 168.823 137.694 168.157C137.694 167.485 137.817 166.888 138.064 166.364C138.315 165.841 138.66 165.431 139.102 165.135C139.544 164.835 140.057 164.686 140.642 164.686C141.089 164.686 141.495 164.773 141.858 164.947C142.222 165.119 142.521 165.362 142.757 165.675C142.995 165.987 143.145 166.35 143.206 166.766H142.421C142.34 166.388 142.143 166.065 141.832 165.798C141.524 165.527 141.132 165.392 140.655 165.392C140.227 165.392 139.85 165.508 139.521 165.741C139.192 165.971 138.935 166.292 138.749 166.705C138.566 167.115 138.474 167.59 138.474 168.131C138.474 168.674 138.565 169.155 138.745 169.574C138.925 169.99 139.178 170.315 139.504 170.551C139.832 170.786 140.216 170.904 140.655 170.904C140.951 170.904 141.222 170.849 141.466 170.738C141.713 170.625 141.919 170.465 142.085 170.259C142.254 170.052 142.367 169.807 142.425 169.522H143.21C143.152 169.926 143.008 170.286 142.779 170.603C142.552 170.917 142.257 171.164 141.893 171.345C141.533 171.525 141.12 171.615 140.655 171.615ZM147.646 171.475V164.777H148.426V171.475H147.646ZM148.043 163.626C147.883 163.626 147.746 163.572 147.633 163.465C147.519 163.354 147.463 163.222 147.463 163.068C147.463 162.914 147.519 162.783 147.633 162.675C147.746 162.565 147.883 162.51 148.043 162.51C148.202 162.51 148.339 162.565 148.452 162.675C148.566 162.783 148.623 162.914 148.623 163.068C148.623 163.222 148.566 163.354 148.452 163.465C148.339 163.572 148.202 163.626 148.043 163.626ZM155.113 171.628C154.709 171.628 154.34 171.55 154.005 171.393C153.671 171.233 153.405 171.003 153.207 170.704C153.01 170.401 152.911 170.035 152.911 169.605C152.911 169.273 152.973 168.994 153.098 168.767C153.223 168.541 153.401 168.354 153.63 168.209C153.86 168.064 154.132 167.949 154.446 167.865C154.76 167.78 155.106 167.715 155.484 167.668C155.859 167.622 156.176 167.581 156.434 167.546C156.696 167.511 156.895 167.456 157.032 167.381C157.168 167.305 157.237 167.183 157.237 167.014V166.857C157.237 166.401 157.1 166.042 156.827 165.78C156.556 165.516 156.167 165.383 155.658 165.383C155.175 165.383 154.782 165.489 154.476 165.702C154.174 165.914 153.962 166.164 153.84 166.452L153.103 166.186C153.254 165.819 153.463 165.527 153.731 165.309C153.998 165.088 154.298 164.93 154.629 164.834C154.96 164.735 155.296 164.686 155.636 164.686C155.892 164.686 156.158 164.719 156.434 164.786C156.713 164.853 156.972 164.969 157.211 165.135C157.449 165.298 157.642 165.526 157.791 165.819C157.939 166.11 158.013 166.479 158.013 166.927V171.475H157.237V170.416H157.189C157.096 170.613 156.958 170.805 156.774 170.991C156.591 171.177 156.362 171.33 156.085 171.449C155.809 171.568 155.485 171.628 155.113 171.628ZM155.218 170.917C155.63 170.917 155.988 170.826 156.29 170.642C156.593 170.459 156.825 170.217 156.988 169.914C157.154 169.609 157.237 169.273 157.237 168.907V167.939C157.179 167.994 157.081 168.043 156.945 168.087C156.811 168.131 156.655 168.17 156.478 168.205C156.303 168.237 156.129 168.264 155.955 168.288C155.78 168.311 155.623 168.331 155.484 168.349C155.106 168.395 154.783 168.468 154.516 168.567C154.248 168.666 154.043 168.802 153.901 168.977C153.758 169.148 153.687 169.369 153.687 169.639C153.687 170.047 153.832 170.362 154.123 170.586C154.414 170.807 154.779 170.917 155.218 170.917ZM163.617 162.544V171.475H162.841V162.544H163.617ZM175.427 167.289V171.475H174.651V162.544H175.427V165.828H175.497C175.654 165.482 175.897 165.206 176.225 165C176.557 164.793 176.975 164.69 177.481 164.69C177.935 164.69 178.333 164.783 178.676 164.969C179.019 165.155 179.286 165.43 179.478 165.793C179.67 166.157 179.766 166.604 179.766 167.136V171.475H178.986V167.184C178.986 166.632 178.831 166.197 178.523 165.88C178.218 165.561 177.805 165.401 177.285 165.401C176.927 165.401 176.609 165.476 176.33 165.628C176.051 165.779 175.83 165.997 175.667 166.282C175.507 166.564 175.427 166.899 175.427 167.289ZM188.829 168.916V164.777H189.606V171.475H188.829V170.363H188.768C188.611 170.706 188.363 170.993 188.023 171.222C187.683 171.449 187.267 171.563 186.776 171.563C186.348 171.563 185.969 171.47 185.637 171.284C185.306 171.095 185.046 170.818 184.857 170.455C184.668 170.092 184.573 169.645 184.573 169.116V164.777H185.35V169.068C185.35 169.592 185.504 170.013 185.812 170.333C186.12 170.65 186.515 170.808 186.998 170.808C187.3 170.808 187.591 170.736 187.87 170.59C188.149 170.445 188.379 170.233 188.559 169.953C188.739 169.671 188.829 169.326 188.829 168.916ZM194.585 171.475V162.544H195.366V166.055H195.436C195.523 165.854 195.648 165.648 195.811 165.436C195.976 165.223 196.193 165.046 196.46 164.904C196.731 164.758 197.071 164.686 197.481 164.686C198.03 164.686 198.513 164.831 198.929 165.122C199.344 165.409 199.668 165.814 199.901 166.334C200.134 166.851 200.25 167.455 200.25 168.144C200.25 168.836 200.134 169.442 199.901 169.962C199.671 170.483 199.349 170.888 198.933 171.179C198.52 171.47 198.04 171.615 197.494 171.615C197.087 171.615 196.747 171.542 196.473 171.397C196.203 171.252 195.985 171.073 195.819 170.861C195.654 170.645 195.526 170.436 195.436 170.233H195.34V171.475H194.585ZM195.353 168.131C195.353 168.671 195.433 169.151 195.593 169.57C195.755 169.985 195.988 170.313 196.29 170.551C196.595 170.786 196.965 170.904 197.398 170.904C197.843 170.904 198.219 170.782 198.527 170.538C198.836 170.291 199.07 169.958 199.229 169.539C199.389 169.121 199.469 168.651 199.469 168.131C199.469 167.616 199.389 167.152 199.229 166.74C199.072 166.327 198.84 166 198.532 165.758C198.224 165.514 197.846 165.392 197.398 165.392C196.962 165.392 196.591 165.51 196.286 165.745C195.984 165.978 195.752 166.301 195.593 166.713C195.433 167.123 195.353 167.596 195.353 168.131Z" fill="white"/>
<path d="M176.833 61V86.4167C176.833 101.667 166.667 111.833 151.417 111.833H100.583C85.3333 111.833 75.1666 101.667 75.1666 86.4167V61C75.1666 47.1733 83.5033 37.515 96.4658 35.8883C97.7875 35.685 99.16 35.5833 100.583 35.5833H151.417C152.738 35.5833 154.009 35.6341 155.229 35.8374C168.344 37.3624 176.833 47.0717 176.833 61Z" fill="#4F7DFF"/>
<path d="M155.229 35.8375C154.009 35.6342 152.738 35.5834 151.417 35.5834H100.583C99.16 35.5834 97.7875 35.685 96.4658 35.8884C97.1775 34.465 98.1942 33.1434 99.4142 31.9234L115.935 15.3517C122.899 8.43834 134.184 8.43834 141.148 15.3517L150.044 24.3493C153.297 27.5518 155.026 31.6183 155.229 35.8375Z" fill="#F5F7FA"/>
<path d="M176.833 63.5417H161.583C155.992 63.5417 151.417 68.1167 151.417 73.7083C151.417 79.3 155.992 83.875 161.583 83.875H176.833" fill="#F5F7FA"/>
<path d="M126.933 80.5645H128.017C129.102 80.5645 130.002 79.5971 130.002 78.4295C130.002 76.9784 129.485 76.6948 128.635 76.3946L126.95 75.8108V80.5645H126.933Z" fill="white"/>
<path d="M125.632 57.1796C116.425 57.213 108.969 64.7022 109.003 73.9093C109.036 83.1165 116.525 90.5724 125.733 90.539C134.94 90.5056 142.396 83.0165 142.362 73.8093C142.329 64.6021 134.84 57.1629 125.632 57.1796ZM129.452 74.0261C130.753 74.4765 132.504 75.4439 132.504 78.4295C132.504 80.9982 130.486 83.0665 128.018 83.0665H126.933V84.0339C126.933 84.7178 126.366 85.2849 125.682 85.2849C124.999 85.2849 124.432 84.7178 124.432 84.0339V83.0665H123.831C121.096 83.0665 118.877 80.7647 118.877 77.9292C118.877 77.2453 119.444 76.6782 120.128 76.6782C120.812 76.6782 121.379 77.2453 121.379 77.9292C121.379 79.3803 122.48 80.5645 123.831 80.5645H124.432V74.9268L121.913 74.0261C120.612 73.5758 118.86 72.6083 118.86 69.6227C118.86 67.054 120.879 64.9857 123.347 64.9857H124.432V64.0183C124.432 63.3344 124.999 62.7673 125.682 62.7673C126.366 62.7673 126.933 63.3344 126.933 64.0183V64.9857H127.534C130.269 64.9857 132.488 67.2875 132.488 70.1231C132.488 70.8069 131.921 71.374 131.237 71.374C130.553 71.374 129.986 70.8069 129.986 70.1231C129.986 68.6719 128.885 67.4877 127.534 67.4877H126.933V73.1254L129.452 74.0261Z" fill="white"/>
<path d="M121.379 69.6392C121.379 71.0903 121.896 71.3739 122.747 71.6741L124.431 72.2579V67.4875H123.347C122.263 67.4875 121.379 68.455 121.379 69.6392Z" fill="white"/>
</svg>
